<svg width="637" height="193" viewBox="0 0 637 193" fill="none" xmlns="http://www.w3.org/2000/svg">
<g clip-path="url(#clip0_1_2)">
<path d="M35 72.7347V36.4066C35 32.5101 38.3915 29.3753 42.6071 29.3753H81.9107C84.0027 29.3753 85.7143 30.9574 85.7143 32.8909V44.6097C85.7143 46.5433 84.0027 48.1253 81.9107 48.1253H55.2857V72.7347C55.2857 74.6683 53.5741 76.2503 51.4821 76.2503H38.8036C36.7116 76.2503 35 74.6683 35 72.7347ZM126.286 32.8909V44.6097C126.286 46.5433 127.997 48.1253 130.089 48.1253H156.714V72.7347C156.714 74.6683 158.426 76.2503 160.518 76.2503H173.196C175.288 76.2503 177 74.6683 177 72.7347V36.4066C177 32.5101 173.608 29.3753 169.393 29.3753H130.089C127.997 29.3753 126.286 30.9574 126.286 32.8909ZM173.196 113.75H160.518C158.426 113.75 156.714 115.332 156.714 117.266V141.875H130.089C127.997 141.875 126.286 143.457 126.286 145.391V157.11C126.286 159.043 127.997 160.625 130.089 160.625H169.393C173.608 160.625 177 157.491 177 153.594V117.266C177 115.332 175.288 113.75 173.196 113.75ZM85.7143 157.11V145.391C85.7143 143.457 84.0027 141.875 81.9107 141.875H55.2857V117.266C55.2857 115.332 53.5741 113.75 51.4821 113.75H38.8036C36.7116 113.75 35 115.332 35 117.266V153.594C35 157.491 38.3915 160.625 42.6071 160.625H81.9107C84.0027 160.625 85.7143 159.043 85.7143 157.11Z" fill="#007BFF"/>
<path d="M104.312 68.06V78.668H85.136V87.1H99.28V97.232H85.136V116H71.808V68.06H104.312Z" fill="#007BFF"/>
<path d="M129.688 96.304C133.309 96.304 136.184 97.5173 138.312 99.944C140.44 102.333 141.504 105.581 141.504 109.688V128H130.528V111.144C130.528 109.352 130.061 107.952 129.128 106.944C128.195 105.899 126.944 105.376 125.376 105.376C123.733 105.376 122.445 105.899 121.512 106.944C120.579 107.952 120.112 109.352 120.112 111.144V128H109.136V96.584H120.112V101.064C121.083 99.6453 122.389 98.5067 124.032 97.648C125.675 96.752 127.56 96.304 129.688 96.304Z" fill="white"/>
</g>
<path d="M229.04 74.7V84.06H212.12V91.5H224.6V100.44H212.12V117H200.36V74.7H229.04ZM239.933 80.22C237.853 80.22 236.173 79.66 234.893 78.54C233.653 77.38 233.033 75.94 233.033 74.22C233.033 72.46 233.653 71 234.893 69.84C236.173 68.68 237.853 68.1 239.933 68.1C241.973 68.1 243.613 68.68 244.853 69.84C246.133 71 246.773 72.46 246.773 74.22C246.773 75.94 246.133 77.38 244.853 78.54C243.613 79.66 241.973 80.22 239.933 80.22ZM245.753 83.34V117H233.993V83.34H245.753ZM274.47 83.04C278.35 83.04 281.43 84.34 283.71 86.94C285.99 89.5 287.13 92.98 287.13 97.38V117H275.37V98.94C275.37 97.02 274.87 95.52 273.87 94.44C272.87 93.32 271.53 92.76 269.85 92.76C268.09 92.76 266.71 93.32 265.71 94.44C264.71 95.52 264.21 97.02 264.21 98.94V117H252.45V83.34H264.21V88.14C265.25 86.62 266.65 85.4 268.41 84.48C270.17 83.52 272.19 83.04 274.47 83.04ZM291.663 100.14C291.663 96.66 292.283 93.62 293.523 91.02C294.803 88.42 296.543 86.42 298.743 85.02C300.943 83.62 303.383 82.92 306.063 82.92C308.223 82.92 310.143 83.38 311.823 84.3C313.543 85.18 314.883 86.4 315.843 87.96V72.6H327.663V117H315.843V112.32C314.923 113.88 313.623 115.12 311.943 116.04C310.263 116.96 308.283 117.42 306.003 117.42C303.323 117.42 300.883 116.72 298.683 115.32C296.523 113.92 294.803 111.92 293.523 109.32C292.283 106.68 291.663 103.62 291.663 100.14ZM315.903 100.14C315.903 97.98 315.303 96.28 314.103 95.04C312.943 93.8 311.503 93.18 309.783 93.18C308.023 93.18 306.563 93.8 305.403 95.04C304.243 96.24 303.663 97.94 303.663 100.14C303.663 102.3 304.243 104.02 305.403 105.3C306.563 106.54 308.023 107.16 309.783 107.16C311.503 107.16 312.943 106.54 314.103 105.3C315.303 104.06 315.903 102.34 315.903 100.14ZM378.344 83.04C382.584 83.04 385.904 84.32 388.304 86.88C390.744 89.44 391.964 92.94 391.964 97.38V117H380.204V98.94C380.204 97.14 379.704 95.74 378.704 94.74C377.704 93.74 376.344 93.24 374.624 93.24C372.904 93.24 371.544 93.74 370.544 94.74C369.544 95.74 369.044 97.14 369.044 98.94V117H357.284V98.94C357.284 97.14 356.784 95.74 355.784 94.74C354.824 93.74 353.484 93.24 351.764 93.24C350.004 93.24 348.624 93.74 347.624 94.74C346.624 95.74 346.124 97.14 346.124 98.94V117H334.364V83.34H346.124V87.78C347.164 86.34 348.504 85.2 350.144 84.36C351.824 83.48 353.744 83.04 355.904 83.04C358.384 83.04 360.584 83.58 362.504 84.66C364.464 85.74 366.004 87.26 367.124 89.22C368.324 87.38 369.904 85.9 371.864 84.78C373.824 83.62 375.984 83.04 378.344 83.04ZM434.647 83.34L413.287 133.02H400.507L408.547 115.56L394.747 83.34H407.827L414.907 102.42L421.747 83.34H434.647Z" fill="#007BFF"/>
<path d="M459.743 83.04C463.623 83.04 466.703 84.34 468.983 86.94C471.263 89.5 472.403 92.98 472.403 97.38V117H460.643V98.94C460.643 97.02 460.143 95.52 459.143 94.44C458.143 93.32 456.803 92.76 455.123 92.76C453.363 92.76 451.983 93.32 450.983 94.44C449.983 95.52 449.483 97.02 449.483 98.94V117H437.723V83.34H449.483V88.14C450.523 86.62 451.923 85.4 453.683 84.48C455.443 83.52 457.463 83.04 459.743 83.04ZM511.016 99.78C511.016 100.7 510.956 101.62 510.836 102.54H488.576C488.696 104.38 489.196 105.76 490.076 106.68C490.996 107.56 492.156 108 493.556 108C495.516 108 496.916 107.12 497.756 105.36H510.296C509.776 107.68 508.756 109.76 507.236 111.6C505.756 113.4 503.876 114.82 501.596 115.86C499.316 116.9 496.796 117.42 494.036 117.42C490.716 117.42 487.756 116.72 485.156 115.32C482.596 113.92 480.576 111.92 479.096 109.32C477.656 106.72 476.936 103.66 476.936 100.14C476.936 96.62 477.656 93.58 479.096 91.02C480.536 88.42 482.536 86.42 485.096 85.02C487.696 83.62 490.676 82.92 494.036 82.92C497.356 82.92 500.296 83.6 502.856 84.96C505.416 86.32 507.416 88.28 508.856 90.84C510.296 93.36 511.016 96.34 511.016 99.78ZM499.016 96.84C499.016 95.4 498.536 94.28 497.576 93.48C496.616 92.64 495.416 92.22 493.976 92.22C492.536 92.22 491.356 92.62 490.436 93.42C489.516 94.18 488.916 95.32 488.636 96.84H499.016ZM530.169 117.42C527.129 117.42 524.409 116.92 522.009 115.92C519.649 114.88 517.769 113.48 516.369 111.72C515.009 109.92 514.249 107.9 514.089 105.66H525.489C525.649 106.74 526.149 107.58 526.989 108.18C527.829 108.78 528.869 109.08 530.109 109.08C531.069 109.08 531.829 108.88 532.389 108.48C532.949 108.08 533.229 107.56 533.229 106.92C533.229 106.08 532.769 105.46 531.849 105.06C530.929 104.66 529.409 104.22 527.289 103.74C524.889 103.26 522.889 102.72 521.289 102.12C519.689 101.52 518.289 100.54 517.089 99.18C515.929 97.82 515.349 95.98 515.349 93.66C515.349 91.66 515.889 89.86 516.969 88.26C518.049 86.62 519.629 85.32 521.709 84.36C523.829 83.4 526.369 82.92 529.329 82.92C533.729 82.92 537.189 84 539.709 86.16C542.229 88.32 543.689 91.16 544.089 94.68H533.469C533.269 93.6 532.789 92.78 532.029 92.22C531.309 91.62 530.329 91.32 529.089 91.32C528.129 91.32 527.389 91.5 526.869 91.86C526.389 92.22 526.149 92.72 526.149 93.36C526.149 94.16 526.609 94.78 527.529 95.22C528.449 95.62 529.929 96.04 531.969 96.48C534.409 97 536.429 97.58 538.029 98.22C539.669 98.86 541.089 99.9 542.289 101.34C543.529 102.74 544.149 104.66 544.149 107.1C544.149 109.06 543.569 110.82 542.409 112.38C541.289 113.94 539.669 115.18 537.549 116.1C535.469 116.98 533.009 117.42 530.169 117.42ZM569.79 106.98V117H564.69C556.09 117 551.79 112.74 551.79 104.22V93.12H547.65V83.34H551.79V75.18H563.61V83.34H569.73V93.12H563.61V104.4C563.61 105.32 563.81 105.98 564.21 106.38C564.65 106.78 565.37 106.98 566.37 106.98H569.79Z" fill="white"/>
<defs>
<clipPath id="clip0_1_2">
<rect width="142" height="150" fill="white" transform="translate(35 20)"/>
</clipPath>
</defs>
</svg>
